<svg width="52" height="72" viewBox="0 0 52 72" fill="none" xmlns="http://www.w3.org/2000/svg">
<g clip-path="url(#clip0_1_595)">
<path d="M27.6983 71.3697C27.6986 71.3697 27.6967 71.3718 27.6914 71.3758C27.6953 71.3716 27.6979 71.3696 27.6983 71.3697ZM27.3292 71.4861C27.3476 71.4907 27.3653 71.4954 27.3824 71.5C27.3653 71.5046 27.3476 71.5093 27.3292 71.5139C27.0023 71.5956 26.5321 71.65 26 71.65C25.4679 71.65 24.9977 71.5956 24.6708 71.5139C24.6524 71.5093 24.6347 71.5046 24.6176 71.5C24.6347 71.4954 24.6524 71.4907 24.6708 71.4861C24.9977 71.4044 25.4679 71.35 26 71.35C26.5321 71.35 27.0023 71.4044 27.3292 71.4861ZM24.3017 71.3697C24.3021 71.3696 24.3047 71.3716 24.3086 71.3758C24.3033 71.3718 24.3014 71.3697 24.3017 71.3697ZM24.3017 71.6303C24.3014 71.6303 24.3033 71.6282 24.3086 71.6242C24.3047 71.6284 24.3021 71.6304 24.3017 71.6303ZM27.6914 71.6242C27.6967 71.6282 27.6986 71.6303 27.6983 71.6303C27.6979 71.6304 27.6953 71.6284 27.6914 71.6242Z" fill="#DCDFE2" stroke="#FF0000" stroke-width="0.7"/>
<path d="M24.5902 1.52893L24.5911 1.52888C27.8793 1.36842 31.1659 1.8778 34.2514 3.0261C37.3368 4.17439 40.1567 5.93766 42.54 8.20888C44.9233 10.4801 46.8202 13.2119 48.1157 16.2385C49.411 19.2648 50.078 22.5228 50.0761 25.8146C50.0716 29.4496 49.2476 33.0368 47.6656 36.3095C46.0837 39.5818 43.7845 42.4555 40.9389 44.7168C34.7114 49.6477 29.5613 55.7993 25.803 62.7909C22.0355 55.7721 16.8459 49.6157 10.5654 44.715C7.51318 42.269 5.09937 39.1195 3.53082 35.5364C1.96099 31.9503 1.28466 28.0368 1.55988 24.1319L1.55991 24.1319L1.56053 24.1221C1.92522 18.4179 4.76841 12.9 9.03019 8.72261C13.292 4.54524 18.8747 1.80437 24.5902 1.52893Z" fill="white" stroke="#FF0000" stroke-width="3"/>
<path d="M25.7903 57.8452C24.2663 57.8479 22.7441 57.9517 21.2338 58.1559C22.4396 59.8778 23.5317 61.6766 24.5032 63.5409L25.2429 65.0203C25.2961 65.1192 25.375 65.2019 25.4714 65.2595C25.5678 65.3172 25.678 65.3476 25.7903 65.3476C25.9026 65.3476 26.0128 65.3172 26.1092 65.2595C26.2056 65.2019 26.2845 65.1192 26.3377 65.0203L26.7667 64.177C27.8499 62.1306 29.0605 60.1542 30.3912 58.2594C28.8684 58.0201 27.3314 57.8817 25.7903 57.8452Z" fill="#FF0000"/>
<g clip-path="url(#clip1_1_595)">
<path d="M12 14H42V22.12C40.3917 20.5644 38.7875 20.2933 37.1875 21.3067C36.9647 21.4498 36.7991 21.675 36.7229 21.9386C36.6467 22.2022 36.6652 22.4854 36.775 22.7333C37.5333 24.4133 37.65 26.1644 37.125 27.9867C36.3167 30.7956 37.0083 31.3111 39.2 29.5333C40.15 28.7689 41.0833 27.5911 42 26V38H12V14ZM35.95 19.72C36.3333 19.8711 36.6583 19.8 36.925 19.5067C37.0325 19.387 37.1087 19.2393 37.146 19.0783C37.1832 18.9174 37.1801 18.7488 37.1371 18.5895C37.0941 18.4302 37.0126 18.2858 36.9008 18.1706C36.789 18.0554 36.6508 17.9736 36.5 17.9333C32.9583 17.0089 29.4458 16.0178 25.9625 14.96C23.3625 14.1733 19.3625 13.7467 17.0375 15.0533C13.0542 17.3111 11.525 21.2622 12.45 26.9067C13.475 33.04 21.6875 29.2533 24.2375 27C27.9125 23.7556 31.6208 21.3333 35.3625 19.7333C35.5488 19.6558 35.7567 19.6511 35.95 19.72ZM28.375 32.8133C28.1273 32.9783 27.8324 33.0434 27.5436 32.997C27.2548 32.9505 26.9911 32.7956 26.8 32.56L25 30.36C24.6583 29.9422 24.2792 29.8889 23.8625 30.2C23.7042 30.3156 23.5875 30.4667 23.5125 30.6533C23.3708 31.0178 23.3833 31.3778 23.55 31.7333C24.7625 34.4 26.9125 40.1467 30.8875 36.7867C34.4375 33.7911 35.8958 29.4756 35.2625 23.84C35.1042 22.4444 34.4333 22.0533 33.25 22.6667L32.75 22.92C31.6167 23.4978 31.1583 24.4444 31.375 25.76C31.8667 28.8089 30.8667 31.16 28.375 32.8133ZM17 32.1733C16.8462 32.1915 16.7014 32.26 16.5855 32.3694C16.4696 32.4788 16.3883 32.6238 16.3527 32.7844C16.3171 32.9451 16.329 33.1136 16.3867 33.2667C16.4444 33.4199 16.5451 33.5503 16.675 33.64L22.6875 37.7867C22.8244 37.8821 22.9868 37.9271 23.1499 37.915C23.313 37.9028 23.468 37.8342 23.5911 37.7194C23.7143 37.6047 23.7989 37.4501 23.8321 37.2793C23.8653 37.1085 23.8452 36.9309 23.775 36.7733L21.7875 32.1467C21.7226 31.9932 21.614 31.8655 21.4771 31.7817C21.3402 31.6979 21.182 31.6623 21.025 31.68L17 32.1733Z" fill="white"/>
<path d="M35.3625 19.7333C31.6208 21.3333 27.9125 23.7556 24.2375 27C21.6875 29.2533 13.475 33.04 12.45 26.9067C11.525 21.2622 13.0542 17.3111 17.0375 15.0533C19.3625 13.7467 23.3625 14.1733 25.9625 14.96C29.4458 16.0178 32.9583 17.0089 36.5 17.9333C36.6508 17.9736 36.789 18.0555 36.9008 18.1706C37.0126 18.2858 37.0941 18.4302 37.1371 18.5895C37.1801 18.7488 37.1832 18.9174 37.146 19.0783C37.1087 19.2393 37.0325 19.387 36.925 19.5067C36.6583 19.8 36.3333 19.8711 35.95 19.72C35.7568 19.6511 35.5489 19.6558 35.3625 19.7333Z" fill="#63FF60"/>
<path d="M42 22.12V26C41.0833 27.5911 40.15 28.7689 39.2 29.5333C37.0083 31.3111 36.3167 30.7956 37.125 27.9867C37.65 26.1644 37.5333 24.4133 36.775 22.7333C36.6653 22.4854 36.6467 22.2022 36.7229 21.9386C36.7991 21.675 36.9647 21.4498 37.1875 21.3067C38.7875 20.2933 40.3917 20.5644 42 22.12Z" fill="#63FF60"/>
<path d="M28.375 32.8133C30.8667 31.16 31.8667 28.8089 31.375 25.76C31.1583 24.4445 31.6167 23.4978 32.75 22.92L33.25 22.6667C34.4333 22.0533 35.1042 22.4445 35.2625 23.84C35.8958 29.4756 34.4375 33.7911 30.8875 36.7867C26.9125 40.1467 24.7625 34.4 23.55 31.7333C23.3833 31.3778 23.3708 31.0178 23.5125 30.6533C23.5875 30.4667 23.7042 30.3156 23.8625 30.2C24.2792 29.8889 24.6583 29.9422 25 30.36L26.8 32.56C26.9911 32.7956 27.2548 32.9505 27.5436 32.997C27.8324 33.0434 28.1273 32.9783 28.375 32.8133Z" fill="#63FF60"/>
<path d="M17 32.1733L21.025 31.68C21.182 31.6623 21.3402 31.6979 21.4771 31.7817C21.614 31.8655 21.7226 31.9932 21.7875 32.1467L23.775 36.7733C23.8452 36.9308 23.8653 37.1085 23.8321 37.2793C23.7989 37.4501 23.7143 37.6047 23.5911 37.7194C23.468 37.8342 23.313 37.9028 23.1499 37.915C22.9868 37.9271 22.8244 37.8821 22.6875 37.7867L16.675 33.64C16.5451 33.5503 16.4444 33.4199 16.3867 33.2667C16.329 33.1136 16.3171 32.9451 16.3527 32.7844C16.3883 32.6238 16.4696 32.4788 16.5855 32.3694C16.7014 32.26 16.8462 32.1915 17 32.1733Z" fill="#63FF60"/>
</g>
</g>
<defs>
<clipPath id="clip0_1_595">
<rect width="51.5761" height="72" fill="white"/>
</clipPath>
<clipPath id="clip1_1_595">
<rect width="30" height="24" fill="white" transform="translate(12 14)"/>
</clipPath>
</defs>
</svg>
